/* XPM */
static char *bitcoin32[] = {
/* columns rows colors chars-per-pixel */
"32 32 236 2 ",
"   c #335FBD",
".  c #335FBF",
"X  c #3577AF",
"o  c #367AAF",
"O  c #367FAC",
"+  c #367CAE",
"@  c #346DB7",
"#  c #3367BB",
"$  c #3465BA",
"%  c #3466BA",
"&  c #3361BF",
"*  c #3362BE",
"=  c #3462BD",
"-  c #3463BD",
";  c #3465BC",
":  c #3368B8",
">  c #3569B9",
",  c #356BB8",
"<  c #346AB9",
"1  c #3573B3",
"2  c #3577B1",
"3  c #3675B2",
"4  c #3577B2",
"5  c #3570B5",
"6  c #3670B5",
"7  c #3572B4",
"8  c #314ACD",
"9  c #324BCD",
"0  c #314CCD",
"q  c #324CCD",
"w  c #324DCD",
"e  c #324FCD",
"r  c #3157C3",
"t  c #3257C3",
"y  c #3251C7",
"u  c #3252C6",
"i  c #3253C6",
"p  c #3353C7",
"a  c #3155C5",
"s  c #3355C4",
"d  c #3257C5",
"f  c #3154C7",
"g  c #3254C6",
"h  c #3255C6",
"j  c #3355C6",
"k  c #335AC1",
"l  c #3359C2",
"z  c #3258C3",
"x  c #345CC1",
"c  c #345DC1",
"v  c #325AC5",
"b  c #3250C8",
"n  c #3251C8",
"m  c #3351C8",
"M  c #3250C9",
"N  c #3350C9",
"B  c #3251C9",
"V  c #3251CA",
"C  c #3250CE",
"Z  c #3352CE",
"A  c #3254CE",
"S  c #3355CF",
"D  c #3456CF",
"F  c #3458CF",
"G  c #3459D0",
"H  c #355BD0",
"J  c #355CD0",
"K  c #355FD1",
"L  c #3461C0",
"P  c #3660D1",
"I  c #3662D2",
"U  c #3663D2",
"Y  c #3764D3",
"T  c #3766D3",
"R  c #3768D3",
"E  c #3869D3",
"W  c #386BD4",
"Q  c #386CD4",
"!  c #396ED5",
"~  c #396FD5",
"^  c #3971D5",
"/  c #3A73D6",
"(  c #3A74D6",
")  c #3B76D7",
"_  c #3B78D7",
"`  c #3B79D7",
"'  c #3C7BD8",
"]  c #3C7DD8",
"[  c #3C7FD9",
"{  c #5D7FE4",
"}  c #7E67EB",
"|  c #7B6FEB",
" . c #7C6CEB",
".. c #677AE6",
"X. c #7777EB",
"o. c #7974EB",
"O. c #7973EC",
"+. c #7679EB",
"@. c #757CEC",
"#. c #757FEC",
"$. c #8160EB",
"%. c #39939F",
"&. c #39979E",
"*. c #399A9B",
"=. c #3A9B9B",
"-. c #399C99",
";. c #3A9F98",
":. c #3A9F99",
">. c #399C9A",
",. c #399D9A",
"<. c #39989C",
"1. c #3AAF8E",
"2. c #3BAF8E",
"3. c #3CAD8F",
"4. c #3CAF8E",
"5. c #3BB08E",
"6. c #3AB18E",
"7. c #3BB18F",
"8. c #3CB18D",
"9. c #3CB38C",
"0. c #3CB28D",
"q. c #3DB28D",
"w. c #3CB38D",
"e. c #3DB38D",
"r. c #3CB18E",
"t. c #3CB28E",
"y. c #3AA295",
"u. c #39A097",
"i. c #3BA096",
"p. c #3AA297",
"a. c #3AA594",
"s. c #3AA595",
"d. c #3BA794",
"f. c #3AA596",
"g. c #3AAB90",
"h. c #3BAB90",
"j. c #3BA892",
"k. c #3CAB91",
"l. c #3CAA92",
"z. c #3BAD90",
"x. c #3BAE90",
"c. c #3CAC91",
"v. c #3CAD91",
"b. c #3BA894",
"n. c #3788A6",
"m. c #378DA4",
"M. c #388EA3",
"N. c #388BA4",
"B. c #3889A6",
"V. c #388EA5",
"C. c #3781AB",
"Z. c #3784A9",
"A. c #3784AA",
"S. c #3680AC",
"D. c #3884A8",
"F. c #3790A0",
"G. c #3891A0",
"H. c #3994A0",
"J. c #3D80D9",
"K. c #3D82DA",
"L. c #3E84DA",
"P. c #3E85DA",
"I. c #3E87DB",
"U. c #3F89DB",
"Y. c #408ADC",
"T. c #408DDC",
"R. c #408EDC",
"E. c #4090DD",
"W. c #4192DD",
"Q. c #4196DE",
"!. c #4297DF",
"~. c #4299DF",
"^. c #439BDF",
"/. c #439EE0",
"(. c #599CE7",
"). c #6584E7",
"_. c #6F8AEC",
"`. c #6E8BEC",
"'. c #6D8DEC",
"]. c #6D8FEC",
"[. c #7381EC",
"{. c #7185EC",
"}. c #7086EC",
"|. c #6796EB",
" X c #6B91EB",
".X c #6B92EC",
"XX c #6A94EC",
"oX c #6997EC",
"OX c #679CEC",
"+X c #659FEC",
"@X c #669EEC",
"#X c #6899EC",
"$X c #689AEC",
"%X c #44A0E1",
"&X c #45A3E2",
"*X c #45A7E2",
"=X c #46A8E3",
"-X c #46ACE4",
";X c #48ACE5",
":X c #5FAEED",
">X c #48B1E5",
",X c #48B4E6",
"<X c #49B8E7",
"1X c #4ABCE8",
"2X c #4BBFE9",
"3X c #5DB1ED",
"4X c #5DB2ED",
"5X c #5DB3ED",
"6X c #5BB6ED",
"7X c #57BFED",
"8X c #5BB8ED",
"9X c #59BBED",
"0X c #5ABAED",
"qX c #58BEED",
"wX c #65A1EC",
"eX c #63A4ED",
"rX c #62A6ED",
"tX c #61A9ED",
"yX c #63A8ED",
"uX c #60ABED",
"iX c #60ACED",
"pX c #4CC3E9",
"aX c #4DC7EA",
"sX c #4ECCEC",
"dX c #57C1ED",
"fX c #56C2ED",
"gX c #55C4ED",
"hX c #56C4ED",
"jX c #54C7ED",
"kX c #53C9ED",
"lX c #52CBEE",
"zX c #51CEEE",
"xX c #4FD2EE",
"cX c #4ED5EE",
"vX c #4CD9EE",
"bX c None",
/* pixels */
"bXbXbXbXbXbXbXbXbXbXbXbXbXbXf j s r bXbXbXbXbXbXbXbXbXbXbXbXbXbX",
"bXbXbXbXbXbXbXbXbXbXV n p i h d t v k c . L bXbXbXbXbXbXbXbXbXbX",
"bXbXbXbXbXbXbXbXM B y bXbXbXbXbXbXbXbXbXbX= ; # bXbXbXbXbXbXbXbX",
"bXbXbXbXbXbXbXN m bXbXbXbXbXbXbXbXbXbXbXbXbXbX< , bXbXbXbXbXbXbX",
"bXbXbXbXbXb y bXbXbXbXbXbXbXbXbXbXbXbXbXbXbXbXbXbX5 7 bXbXbXbXbX",
"bXbXbXbXb m bXbXbXbXbXbXbXbXbXbXbXbXbXbXbXbXbXbXbXbX3 2 bXbXbXbX",
"bXbXbXbXu bXbXbXbXbXbXbXbXbXbXbXbXbXbXbXbXbXbXbXbXbXbXo bXbXbXbX",
"bXbXbXp bXbXbXbXbXbXbXbXbXbXbXvXxXlXhXbXbXbXbXbXbXbXbXbXS.bXbXbX",
"bXbXg a bXbXbXbXbXbXbXbXbXbXcXzXjX7X8XbXbXbXbXbXbXbXbXbXA.D.bXbX",
"bXbXd bXbXbXbXbXbXbXbXbXbXbXkXfX9X5XuXbXbXbXbXbXbXbXbXbXbXn.bXbX",
"bXd z bXbXbXbXbXbXbXbXbXbXgXqX6X:XrX@XbXbXbXbXbXbXbXbXbXbXN.V.bX",
"bXl bXbXbXbXbXbXbXbXbXbXbX0X3XtXwX#X XbXbXbXbXbXbXbXbXbXbXbXG.bX",
"bXx bXbXbXbXbXbXbXbXbXbX4XiXeXOXXX`.bXbXbXbXbXbXbXbXbXbXbXbXH.bX",
"bX. bXbXbXbXbXbXbXbXbXbXyX+XoX].}.#.bXbXbXbXbXbXbXbXbXbXbXbX&.bX",
"  & bXbXbXbXbXbXbXbXbXbX$X.X_.[.+.O.bXbXbXbXbXbXbXbXbXbXbXbX*.>.",
"* - bXbXbXbXbXbXbXbXbXdX'.{.@.o. .bXbXbXbXbXbXbXbXbXbXbXbXbX-.,.",
"$ % bXbXbXbXbXbXbXbXbXsX|.X.| } $.bXbXbXbXbXbXbXbXbXbXbXbXbX:.i.",
": > bXbXbXbXbXbXbXbXaXpX1X(.)...{ bXbXbXbXbXbXbXbXbXbXbXbXbXp.y.",
"bX@ bXbXbXbXbXbXbXbX2X<X>X=X%X!.R.P.] ( Q Y bXbXbXbXbXbXbXbXa.bX",
"bX6 bXbXbXbXbXbXbXbX,X-X&X^.W.U.J._ ~ R P G A bXbXbXbXbXbXbXb.bX",
"bX1 bXbXbXbXbXbXbX;X*X/.Q.T.L.' / W U J D C 0 bXbXbXbXbXbXbXl.bX",
"bX4 X bXbXbXbXbXbXbX~.E.I.[ ) ! T K F Z w 9 8 bXbXbXbXbXbXh.v.bX",
"bXbX+ bXbXbXbXbXbXbXY.K.` ^ E I H S e q 9 8 bXbXbXbXbXbXbXz.bXbX",
"bXbXO C.bXbXbXbXbXbXbXbXbXbXbXbXbXbXbXbXbXbXbXbXbXbXbXbXx.1.bXbX",
"bXbXbXZ.bXbXbXbXbXbXbXbXbXbXbXbXbXbXbXbXbXbXbXbXbXbXbXbX7.bXbXbX",
"bXbXbXbXB.bXbXbXbXbXbXbXbXbXbXbXbXbXbXbXbXbXbXbXbXbXbX8.bXbXbXbX",
"bXbXbXbXm.M.bXbXbXbXbXbXbXbXbXbXbXbXbXbXbXbXbXbXbXbX0.q.bXbXbXbX",
"bXbXbXbXbXF.%.bXbXbXbXbXbXbXbXbXbXbXbXbXbXbXbXbXbXe.q.bXbXbXbXbX",
"bXbXbXbXbXbXbX<.=.bXbXbXbXbXbXbXbXbXbXbXbXbXbX0.w.bXbXbXbXbXbXbX",
"bXbXbXbXbXbXbXbX,.;.u.bXbXbXbXbXbXbXbXbXbXt.w.w.bXbXbXbXbXbXbXbX",
"bXbXbXbXbXbXbXbXbXbXf.s.d.j.k.c.3.4.5.r.w.9.bXbXbXbXbXbXbXbXbXbX",
"bXbXbXbXbXbXbXbXbXbXbXbXbXbXg.z.2.6.bXbXbXbXbXbXbXbXbXbXbXbXbXbX"
};
