/* XPM */
static char *bitcoin16[] = {
/* columns rows colors chars-per-pixel */
"16 16 61 1 ",
"  c #367FAD",
". c #346EB6",
"X c #3367B8",
"o c #3366BB",
"O c #3360BD",
"+ c #3474B2",
"@ c #324FC7",
"# c #314CCC",
"$ c #324FCD",
"% c #3255C5",
"& c #3257C4",
"* c #3155C6",
"= c #325BC3",
"- c #325DC1",
"; c #3150C9",
": c #3253C8",
"> c #3356CE",
", c #345ACF",
"< c #3663D2",
"1 c #3664D1",
"2 c #3768D3",
"3 c #3972D5",
"4 c #3973D5",
"5 c #3B78D7",
"6 c #7175E8",
"7 c #7871EB",
"8 c #747EEB",
"9 c #39959F",
"0 c #399E99",
"q c #389C9A",
"w c #3BAF8F",
"e c #3CB28B",
"r c #3AB18D",
"t c #3CB38D",
"y c #3AA097",
"u c #3AA794",
"i c #3AA992",
"p c #3BAC90",
"a c #3BAF90",
"s c #368DA2",
"d c #3686A8",
"f c #3D82D9",
"g c #3E8ADB",
"h c #4194DE",
"j c #429BDF",
"k c #6F89EC",
"l c #6C8FEC",
"z c #6897EB",
"x c #6099E9",
"c c #6899EC",
"v c #45A5E2",
"b c #48B6E6",
"n c #5CB3ED",
"m c #5FB0EE",
"M c #58BDED",
"N c #63A3EC",
"B c #61A8ED",
"V c #4CC7EB",
"C c #52CCEE",
"Z c #4FD0EE",
"A c None",
/* pixels */
"AAAAAA:%&=AAAAAA",
"AAAA;AAAAAAoAAAA",
"AA@AAAAAAAAAA+AA",
"AAAAAAAAZAAAAAAA",
"A*AAAAACMmAAAAdA",
"AAAAAAAnNzAAAAAA",
"-AAAAABckAAAAAA9",
"OAAAAAl87AAAAAAq",
"XAAAAVx6AAAAAAAy",
".AAAAbvhf3<AAAAu",
"AAAAAjg52,$AAAAA",
"A AAAA41>#AAAAaA",
"AAAAAAAAAAAAAAAA",
"AAsAAAAAAAAAAeAA",
"AAAA0AAAAAAtAAAA",
"AAAAAAipwrAAAAAA"
};
