/* XPM */
static char *bitcoin64[] = {
/* columns rows colors chars-per-pixel */
"64 64 78 1 ",
"  c #377DAE",
". c #356EB7",
"X c #3463BD",
"o c #356AB9",
"O c #3673B3",
"+ c #3679B0",
"@ c #324CCC",
"# c #3354C6",
"$ c #335BC2",
"% c #3352CA",
"& c #355CD1",
"* c #3764D2",
"= c #386CD4",
"- c #3A74D6",
"; c #3B78D7",
": c #3C7CD8",
"> c #7F67EB",
", c #7D6BEB",
"< c #7577EA",
"1 c #7974EB",
"2 c #767BEC",
"3 c #8557EB",
"4 c #835DEB",
"5 c #8162EB",
"6 c #39969E",
"7 c #3A9C9B",
"8 c #3BAF8F",
"9 c #3CB28D",
"0 c #3BA595",
"q c #3CAB92",
"w c #3BA198",
"e c #3BB090",
"r c #3786A7",
"t c #3887A7",
"y c #378AA6",
"u c #398CA4",
"i c #3782AA",
"p c #3885A9",
"a c #3888A8",
"s c #3792A0",
"d c #3992A1",
"f c #3E83DA",
"g c #3F8ADC",
"h c #4183DC",
"j c #408EDD",
"k c #4194DE",
"l c #4299DF",
"z c #4B96E2",
"x c #449DE0",
"c c #4D9DE3",
"v c #6F86EB",
"b c #6E8DEC",
"n c #7283EC",
"m c #7089EC",
"M c #6196E9",
"N c #6B93EC",
"B c #679EEC",
"V c #6999EC",
"C c #45A4E2",
"Z c #46ABE4",
"A c #49A9E4",
"S c #5FAFED",
"D c #48B3E6",
"F c #4AB9E7",
"G c #4BBCE8",
"H c #5DB3ED",
"J c #54BFEB",
"K c #59BCED",
"L c #64A4ED",
"P c #61AAED",
"I c #4CC3EA",
"U c #4ECCEC",
"Y c #56C4ED",
"T c #52CBEE",
"R c #4ED5EE",
"E c #4CDAEE",
"W c #50D1EE",
"Q c None",
/* pixels */
"QQQQQQQQQQQQQQQQQQQQQQQQQQQQQQQQQQQQQQQQQQQQQQQQQQQQQQQQQQQQQQQQ",
"QQQQQQQQQQQQQQQQQQQQQQQQQ########$#$$$$QQQQQQQQQQQQQQQQQQQQQQQQQ",
"QQQQQQQQQQQQQQQQQQQQQQ@##@##%#$%$$#$$$$$$$QQQQQQQQQQQQQQQQQQQQQQ",
"QQQQQQQQQQQQQQQQQQQ@#%#%####QQQQQQQQ$$$$X$X$XQQQQQQQQQQQQQQQQQQQ",
"QQQQQQQQQQQQQQQQQ#@@#%%#QQQQQQQQQQQQQQQQXXXXX$XQQQQQQQQQQQQQQQQQ",
"QQQQQQQQQQQQQQQ@@%###QQQQQQQQQQQQQQQQQQQQQQXXooooQQQQQQQQQQQQQQQ",
"QQQQQQQQQQQQQQ%%@##QQQQQQQQQQQQQQQQQQQQQQQQQQoooooQQQQQQQQQQQQQQ",
"QQQQQQQQQQQQQ@#%#QQQQQQQQQQQQQQQQQQQQQQQQQQQQQQoo..QQQQQQQQQQQQQ",
"QQQQQQQQQQQ#@%#QQQQQQQQQQQQQQQQQQQQQQQQQQQQQQQQQQ....QQQQQQQQQQQ",
"QQQQQQQQQQ#@%%QQQQQQQQQQQQQQQQQQQQQQQQQQQQQQQQQQQQO.OOQQQQQQQQQQ",
"QQQQQQQQQ##@#QQQQQQQQQQQQQQQQQQQQQQQQQQQQQQQQQQQQQQOO+OQQQQQQQQQ",
"QQQQQQQQ%%##QQQQQQQQQQQQQQQQQQQQQQQQQQQQQQQQQQQQQQQQ++++QQQQQQQQ",
"QQQQQQQQ###QQQQQQQQQQQQQQQQQQQQQQQQQQQQQQQQQQQQQQQQQQ+++QQQQQQQQ",
"QQQQQQQ###QQQQQQQQQQQQQQQQQQQQQQEEWQQQQQQQQQQQQQQQQQQQ   QQQQQQQ",
"QQQQQQ#%#QQQQQQQQQQQQQQQQQQQQQEERWWTTQQQQQQQQQQQQQQQQQQ i QQQQQQ",
"QQQQQ#%%QQQQQQQQQQQQQQQQQQQQQEEWWWTTYYQQQQQQQQQQQQQQQQQQiipQQQQQ",
"QQQQQ###QQQQQQQQQQQQQQQQQQQQEWWWTYYYKKQQQQQQQQQQQQQQQQQQpppQQQQQ",
"QQQQ###QQQQQQQQQQQQQQQQQQQQQWWTTYYKKHHSQQQQQQQQQQQQQQQQQQpppQQQQ",
"QQQQ###QQQQQQQQQQQQQQQQQQQQWWTTYYKKSSSPQQQQQQQQQQQQQQQQQQpaaQQQQ",
"QQQ#$#QQQQQQQQQQQQQQQQQQQQQTTYYKKKSSPPLQQQQQQQQQQQQQQQQQQQauuQQQ",
"QQQ#$$QQQQQQQQQQQQQQQQQQQQQYYYKHSSSLLBBQQQQQQQQQQQQQQQQQQQuuuQQQ",
"QQQ$#QQQQQQQQQQQQQQQQQQQQQYYKKHHSPLLBVQQQQQQQQQQQQQQQQQQQQQuuQQQ",
"QQ#$$QQQQQQQQQQQQQQQQQQQQQYKHHPPLLLVNNQQQQQQQQQQQQQQQQQQQQQdudQQ",
"QQ$$$QQQQQQQQQQQQQQQQQQQQYHHSPPLLBNNNmQQQQQQQQQQQQQQQQQQQQQdddQQ",
"QQ$$QQQQQQQQQQQQQQQQQQQQQHHSPLLBVNNmmQQQQQQQQQQQQQQQQQQQQQQQddQQ",
"Q$$$QQQQQQQQQQQQQQQQQQQQQSPPLLVNNbmnnQQQQQQQQQQQQQQQQQQQQQQQdd7Q",
"QXX$QQQQQQQQQQQQQQQQQQQQPPLLBVNNmmnnQQQQQQQQQQQQQQQQQQQQQQQQdddQ",
"Q$$XQQQQQQQQQQQQQQQQQQQQLLBVVNmmmn22QQQQQQQQQQQQQQQQQQQQQQQQ777Q",
"QX$QQQQQQQQQQQQQQQQQQQQLLBVNNmnn222QQQQQQQQQQQQQQQQQQQQQQQQQQ77Q",
"QXXQQQQQQQQQQQQQQQQQQQQPVNNmmnn2111QQQQQQQQQQQQQQQQQQQQQQQQQQ77Q",
"Q$oQQQQQQQQQQQQQQQQQQQQHNNmmnn211,,QQQQQQQQQQQQQQQQQQQQQQQQQQ77Q",
"QXXQQQQQQQQQQQQQQQQQQQWYmmn2211,,5QQQQQQQQQQQQQQQQQQQQQQQQQQQwwQ",
"QXXQQQQQQQQQQQQQQQQQQQUUNn2<11,>55QQQQQQQQQQQQQQQQQQQQQQQQQQQ7wQ",
"QooQQQQQQQQQQQQQQQQQQTUUJm111>>55QQQQQQQQQQQQQQQQQQQQQQQQQQQQ7wQ",
"QooQQQQQQQQQQQQQQQQQQUIIIFM155443QQQQQQQQQQQQQQQQQQQQQQQQQQQQ0wQ",
"QooQQQQQQQQQQQQQQQQQIIIIGFDDACczzxzggff::-QQQQQQQQQQQQQQQQQQQwwQ",
"Qo.oQQQQQQQQQQQQQQQQIGGFDDZZCCllxgghf::--===QQQQQQQQQQQQQQQQ000Q",
"Q...QQQQQQQQQQQQQQQQIGFDDZCCClkkggg::;;==**&&QQQQQQQQQQQQQQQq0qQ",
"Q..OQQQQQQQQQQQQQQQGFDDZZZCllkjjgf::--==&*&&&QQQQQQQQQQQQQQQ000Q",
"QQ.OQQQQQQQQQQQQQQQFDZZCCllljjgf::;-==**&&&&&@QQQQQQQQQQQQQQqqQQ",
"QQOOOQQQQQQQQQQQQQQDAZCxllkjgff:;-===*&&&&&@@@QQQQQQQQQQQQQ0qqQQ",
"QQOOOQQQQQQQQQQQQQQACCxxkkggff:--==*&&&&@@@@@@QQQQQQQQQQQQQqqqQQ",
"QQQO+QQQQQQQQQQQQQQCCxkgggh::;-==***&&&&&@@@@@QQQQQQQQQQQQQqqQQQ",
"QQQ++ QQQQQQQQQQQQQxxxggfff:;===**&&&&@@@@@@@QQQQQQQQQQQQQeeeQQQ",
"QQQ++ QQQQQQQQQQQQQQjggf:::-===**&&&@@@@@@@@QQQQQQQQQQQQQQqqqQQQ",
"QQQQ   QQQQQQQQQQQQQQhf::-==****&%%%@@@@@@@QQQQQQQQQQQQQQqeeQQQQ",
"QQQQ  iQQQQQQQQQQQQQQQQQQQQQQQQQQQQQQQQQQQQQQQQQQQQQQQQQQeeeQQQQ",
"QQQQQiiiQQQQQQQQQQQQQQQQQQQQQQQQQQQQQQQQQQQQQQQQQQQQQQQQqeeQQQQQ",
"QQQQQpipQQQQQQQQQQQQQQQQQQQQQQQQQQQQQQQQQQQQQQQQQQQQQQQQ9e9QQQQQ",
"QQQQQQppaQQQQQQQQQQQQQQQQQQQQQQQQQQQQQQQQQQQQQQQQQQQQQQ999QQQQQQ",
"QQQQQQQaupQQQQQQQQQQQQQQQQQQQQQQQQQQQQQQQQQQQQQQQQQQQQ999QQQQQQQ",
"QQQQQQQQuuuQQQQQQQQQQQQQQQQQQQQQQQQQQQQQQQQQQQQQQQQQQ999QQQQQQQQ",
"QQQQQQQQuuuuQQQQQQQQQQQQQQQQQQQQQQQQQQQQQQQQQQQQQQQQ9999QQQQQQQQ",
"QQQQQQQQQudddQQQQQQQQQQQQQQQQQQQQQQQQQQQQQQQQQQQQQQ9999QQQQQQQQQ",
"QQQQQQQQQQddddQQQQQQQQQQQQQQQQQQQQQQQQQQQQQQQQQQQQ9999QQQQQQQQQQ",
"QQQQQQQQQQQs66dQQQQQQQQQQQQQQQQQQQQQQQQQQQQQQQQQQ9999QQQQQQQQQQQ",
"QQQQQQQQQQQQQ676dQQQQQQQQQQQQQQQQQQQQQQQQQQQQQQ9999QQQQQQQQQQQQQ",
"QQQQQQQQQQQQQQ677wwQQQQQQQQQQQQQQQQQQQQQQQQQQ99999QQQQQQQQQQQQQQ",
"QQQQQQQQQQQQQQQ7dw7wwQQQQQQQQQQQQQQQQQQQQQQ999999QQQQQQQQQQQQQQQ",
"QQQQQQQQQQQQQQQQQwwwww0wQQQQQQQQQQQQQQQQ9999999QQQQQQQQQQQQQQQQQ",
"QQQQQQQQQQQQQQQQQQQw00000q0qQQQQQQQQ999999999QQQQQQQQQQQQQQQQQQQ",
"QQQQQQQQQQQQQQQQQQQQQQ00q0qqqqq9eeee999999QQQQQQQQQQQQQQQQQQQQQQ",
"QQQQQQQQQQQQQQQQQQQQQQQQQqqqqqqqeq99999QQQQQQQQQQQQQQQQQQQQQQQQQ",
"QQQQQQQQQQQQQQQQQQQQQQQQQQQQQQQQQQQQQQQQQQQQQQQQQQQQQQQQQQQQQQQQ"
};
